#!OML:ASF H:\Punching\Project 1\Capture day 1\Session 1\female.ASF
:FULLY-SPECIFIED
:DEGREES
1072
root -0.0768249 15.7287 6.22088 13.0823 -6.52596 2.6626
lowerback -1.40874 -0.972208 2.11896
upperback -6.73684 -1.32455 -1.0152
thorax -6.27864 -0.817703 -2.18721
lowerneck -4.08729 10.7494 16.7055
upperneck 23.3041 16.5992 -14.7177
head 10.8279 7.92074 -6.0449
rclavicle 1.46293e-014 -5.56597e-015
rhumerus -43.0739 10.1982 -87.2189
rradius 36.2973
rwrist -4.20823
rhand -4.60397 -13.8093
rfingers 7.12502
rthumb 21.1739 -42.673
lclavicle 1.46293e-014 -5.56597e-015
lhumerus -49.0957 -12.1842 89.9208
lradius 54.0996
lwrist -12.2003
lhand -17.288 14.9971
lfingers 7.12502
lthumb 8.9574 44.7869
rfemur -17.6218 4.18103 16.1847
rtibia 30.0476
rfoot -22.0793 -20.0102
rtoes -1.74388
lfemur -19.9426 -0.509078 -14.2477
ltibia 32.8673
lfoot -14.2451 8.97202
ltoes -12.2164
1073
root -0.0796988 15.7262 6.2038 13.1543 -6.61473 2.63386
lowerback -1.59442 -0.954921 2.20043
upperback -6.79617 -1.30031 -0.955109
thorax -6.23476 -0.80869 -2.17384
lowerneck -4.02503 10.7735 16.8258
upperneck 23.3289 16.6495 -14.7791
head 10.853 7.95232 -6.08263
rclavicle -1.80211e-014 -7.15625e-015
rhumerus -43.3337 9.08473 -86.6751
rradius 34.8059
rwrist -3.73852
rhand -4.66806 -14.0334
rfingers 7.12502
rthumb 21.1123 -42.904
lclavicle -1.80211e-014 -7.15625e-015
lhumerus -49.9118 -11.0476 89.6932
lradius 52.8138
lwrist -11.0103
lhand -16.4997 15.7295
lfingers 7.12502
lthumb 9.71803 45.4853
rfemur -17.8242 4.31662 16.1863
rtibia 30.1582
rfoot -22.1618 -19.879
rtoes -1.49282
lfemur -19.3153 -0.46392 -14.666
ltibia 33.0375
lfoot -14.6362 8.38236
ltoes -12.6525
1074
root -0.0815249 15.7234 6.18827 13.2298 -6.71101 2.59889
lowerback -1.78351 -0.935336 2.27385
upperback -6.8577 -1.27348 -0.892441
thorax -6.19089 -0.797877 -2.15334
lowerneck -3.95454 10.794 16.9468
upperneck 23.3502 16.6922 -14.8288
head 10.8729 7.98196 -6.11766
rclavicle 2.31398e-015 -1.74931e-014
rhumerus -43.596 7.93579 -86.0726
rradius 33.4154
rwrist -3.17783
rhand -4.56576 -14.2014
rfingers 7.12502
rthumb 21.2106 -43.0609
lclavicle 2.31398e-015 -1.74931e-014
lhumerus -50.7179 -9.92168 89.4402
lradius 51.5723
lwrist -9.58204
lhand -15.6273 16.5027
lfingers 7.12502
lthumb 10.5596 46.2175
rfemur -18.0286 4.46415 16.1898
rtibia 30.2689
rfoot -22.2257 -19.766
rtoes -1.24754
lfemur -18.6379 -0.493511 -15.059
ltibia 33.0446
lfoot -14.9872 7.95275
ltoes -13.0296
1075
root -0.082387 15.7205 6.17427 13.3089 -6.81605 2.55267
lowerback -1.97605 -0.912978 2.33975
upperback -6.91723 -1.2432 -0.823952
thorax -6.14242 -0.784653 -2.12265
lowerneck -3.88951 10.8126 17.0605
upperneck 23.3698 16.7273 -14.8615
head 10.8893 8.00866 -6.146
rclavicle 2.56681e-014 -1.39149e-015
rhumerus -43.8637 6.75575 -85.4036
rradius 32.1328
rwrist -2.54482
rhand -4.28558 -14.2467
rfingers 7.12502
rthumb 21.4797 -43.0758
lclavicle 2.56681e-014 -1.39149e-015
lhumerus -51.4945 -8.82246 89.1721
lradius 50.3508
lwrist -7.8978
lhand -14.687 17.2893
lfingers 7.12502
lthumb 11.4666 46.9557
rfemur -18.2342 4.63246 16.2011
rtibia 30.3783
rfoot -22.2698 -19.685
rtoes -1.02279
lfemur -17.9092 -0.605806 -15.4191
ltibia 32.8677
lfoot -15.3172 7.7742
ltoes -13.3591
